<svg id="Layer_1" data-name="Layer 1" xmlns="http://www.w3.org/2000/svg" viewBox="0 0 487.25 981.74">
<defs>
<style>.cls-1,.cls-12,.cls-13,.cls-14,.cls-4,.cls-6,.cls-7,.cls-8,.cls-9{fill:none;}.cls-1,.cls-12,.cls-13,.cls-14,.cls-2,.cls-3,.cls-4,.cls-5,.cls-6,.cls-7,.cls-8{stroke:#989191;stroke-miterlimit:10;}.cls-1{stroke-width:9px;}.cls-2{fill:#989191; opacity:0.7}.cls-2,.cls-3,.cls-4,.cls-5{fill:#989191;stroke-width:2px;}.cls-5{fill:#989191; opacity:0.7;}.cls-14,.cls-6{stroke-width:4px;}.cls-6{opacity:0.8;}.cls-7{stroke-width:5px;}.cls-8{stroke-width:3px;}.cls-10{opacity:0.21;}.cls-11{fill:#989191;opacity:0.1;}.cls-12{stroke-width:6px;}.cls-13{stroke-width:7px;}</style>
</defs>

<path id="Face_contorn" data-name="Face contorn" class="cls-1" d="M285.86,316c3.35-1.57-6.5-11.36-10.54-27.32-2.63-10.35-3.92-21.33-5.41-35-1.4-12.78-.82-27.88-1.81-40.91-1-13.21-2.69-38.53,6.11-66.57,13.22-42.19,42.87-67.23,58.24-79.88,85.23-70.15,195.46-47.66,200.26-46.6,19.87,4.38,64.13,14,102.63,51,6.37,6.13,21.11,19.45,31.06,39.38a171.42,171.42,0,0,1,9.36,22.68c3.57,10.34,4.58,13.45,8.22,21.84,1.65,3.8,2,3.85,5.89,13.11,2.69,6.45,4.57,9.51,5,12.06a115.82,115.82,0,0,1,1.56,15.42,1,1,0,0,0,0,.17,29.21,29.21,0,0,0,1.49,5.21c.27.6.65.61,1,.33a36.8,36.8,0,0,0,4.06-5.22c1.13-1.57,2.21-4.53,8.32-5.44,5.22-.78,11.47,1.54,13.6,5.83,1.3,2.64,4.39,12.1,2.63,7.94-.14-.33,1.93,4.53,4,10.29a102.39,102.39,0,0,1,4.23,18.1c.82,4.36,1.48,7.92,1.11,12.76s-1.63,8.82-4.16,16.92c-1.87,6-2.1,5.73-2.5,8-.48,2.81-.47,5.09.56,14.7,1,9.43,1.2,9.14,1.39,12.76.32,6.32-.31,6.39,0,12.62.39,7.86.84,7.63,1.24,13.32.47,6.47,2.31,10.31,2.5,13.31a100.45,100.45,0,0,1,5.83,11.65c3.58,8.2.88,17.89.41,19.55-.35,1.26-2.08,7.08-2.08,7.08-.3,5.27-.46,10.83-.41,16.64.11,14.55,1.28,16.69,1.24,30.16,0,14.08-.3,18.06-1.94,27.53-.68,4-1.58,7.07-2.63,13a91,91,0,0,0-1.25,16.22A216.62,216.62,0,0,1,733,506.31c-3.89,25.07-24.79,43-24.9,42.94s0,0,1.6-2.58a136.9,136.9,0,0,0-13.73,14.56c-6.88,8.46-9.05,13.2-13.31,19.14-8.71,12.13-18.7,18.89-27,24.54a125.33,125.33,0,0,1-37.86,17.48c-16.3,4.19-29.34,3.71-37.86,3.33a118.77,118.77,0,0,1-34.11-5.83,112.05,112.05,0,0,1-24.55-11.65,151.29,151.29,0,0,1-94.44-40.77c-18.51-16.72-28.64-31.79-34.53-42.85,0,0-.87-1.63-13.32-26.21-3-.17-21-1.43-32.87-16.23-7.9-9.89-11.75-24.21-9.57-33.28a11.63,11.63,0,0,0,.42-4.58c-.8-6.41-7.2-8.55-13.73-14.15C314.82,423,310.72,414,304,399.39c-1.48-3.24-2.59-6-3.33-7.91a107.23,107.23,0,0,1-19.55-16.64c-3.67-4-6.18-6.59-8.74-10.82-7.38-12.21-7.21-24-7.07-29.12s.45-16.15,5.41-17.89c2.37-.84,4.7.88,10.82,0A22.65,22.65,0,0,0,285.86,316Z" transform="translate(-260.79 -11.05)"/>

<path id="Pupil_left" data-name="Pupil left" class="cls-2" d="M447.42,314.23c-2.16,7.15-8.23,9.85-16.5,9.85s-15-6.05-15-13.52S424,297,432.3,297c4.39,0,10.47.64,13.46,4.16C449.64,305.78,448.53,310.56,447.42,314.23Z" transform="translate(-260.79 -11.05)"/>
<path id="Pupil_right" data-name="Pupil right" class="cls-2" d="M622.58,261.7c-2.16,7.15-8.23,9.85-16.51,9.85s-15-6.06-15-13.53,8.09-13.52,16.36-13.52c4.38,0,10.47.65,13.45,4.16C624.8,253.24,623.69,258,622.58,261.7Z" transform="translate(-260.79 -11.05)"/>

<path id="lense_leg" data-name="lense leg" class="cls-3" d="M292.65,318.26s-.22-2.19-.33-5.72a72.1,72.1,0,0,1,.33-7.8s.69-1.32,3.26-1.05,7.21-.13,9.85.49,3.12,5.06,10,10.82,25.59,5.76,25.59,5.76v17.88s3.26,1.25,4.51,4,1.24,7.48,1.24,7.48L343.34,353s-1.25,1.24-4.58,0-25.58-16.3-25.58-16.3-10.82-8.87-10.82-10.75-3.05-7.07-5.27-8.53S292.65,318.26,292.65,318.26Z" transform="translate(-260.79 -11.05)"/><path id="lense" class="cls-3" d="M348.33,349.88s4.09,6.1,6.87,8.59,8,2.22,8,2.22,4.44,16.37,8,21.64a41.47,41.47,0,0,0,9.16,9.15h5.13a62,62,0,0,1-10.4-12.9c-5-8.11-9.16-22.05-9.78-30.16,0,0-5.82-6.24-3.95-21.22,0,0,1.25-5.2,9.57-8.53l22.26-6.86s5.47-2.43,44-11.3c0,0,.79-.51,5.39-1.43,3.58-.71,6.27-1.14,7.75-1.33,4.79-.6,11.76-1.51,20.42-2.58q4.2-.48,8.61-.84c5.12-.41,11.88-.83,18.43-.83l6.51.83s4.93,1.88,2.85,28.5c0,0-14.58,8.32.51,12.48,0,0,4.69,2.29,3.65,5.83s1.67,2.08,1.88,2.7,2.91-2.61,2.49-11,0-26.67,0-26.67a19.58,19.58,0,0,1,3.71-6.45c2.7-3.12,8.11-5,8.11-5l8.53-1.25h13.73s2.91.63,2.7,4.58,4.37,10.82,7.07,15.18,10.61,7.5,10.61,7.5,7.49,1.24,6.66-2.92-4.37-2.7-4.37-2.7,5-10.27-4.57-11.48-3.75,0-3.75,0-5.62-5.58-6.24-21.81c0,0-3.54-4.37,27-17.26,0,0,13.94-8.12,51.39-19.14,0,0,16.22-5.41,26.62-6.45,0,0,16.85-1.66,24.34.42,0,0,2.71-1.25,4.79,9.15l.41,50.34,3.78-1,5-38.92s4.37-1,6.45-2.7-1,1-2.89-10.37c-.08-.48-.16-1-.23-1.49-1.87-13.11-2.91-2.71-2.08-13.73l-1.88-1.87s-33.69-1.46-56.16,8.32c0,0-48.06,10.4-81.55,31.2,0,0-11.85,5.62-13.73,9.57s-14.11,7.49-20.88,9.57-17.81,1.87-19.27.21l-2.28-.21s-48.06-.83-78,6.24c0,0-53.67,15.32-60.75,16.4s-24.82,5.24-26.76,10.65,0,17.88,0,17.88l4.51,4Z" transform="translate(-260.79 -11.05)"/><path id="lense_glass_left" data-name="lense glass left" class="cls-4" d="M385.57,391.48s18.3,3.75,42,0,48.68-15.39,48.68-15.39" transform="translate(-260.79 -11.05)"/><path id="lens_glass_right" data-name="lens glass right" class="cls-4" d="M692.61,298.91c-5.15,18.35-58.46,37.12-57.43,36.68" transform="translate(-260.79 -11.05)"/>

<path id="eyebrow_left" data-name="eyebrow left" class="cls-5" d="M455.09,239.8a1.34,1.34,0,0,1-.65,1.95c-2.52,1-8.9,3.48-14.79,12.85-6.65,10.61-10.6,10.26-20.8,13.73-11.28,3.84-17.68,10-22.88,16.23s-4.16-2.92-4.16-2.92,3.54-6.24,7.9-12.27,6.87-10.4,14.15-12.9,7.89-3.16,9.94-4.37c4.19-2.45,2.13-.83,5.87-3.53s8.74-12.69,15.81-13.94C450.57,233.73,453.72,237.57,455.09,239.8Z" transform="translate(-260.79 -11.05)"/><path id="eyebrow_right" data-name="eyebrow right" class="cls-5" d="M628.6,215.5a2,2,0,0,1-2.46,2.15,120.76,120.76,0,0,0-26.31-2.3c-14.42.56-23.3-1.94-26.9-1.66a107.83,107.83,0,0,0-11.41,2.15,1.89,1.89,0,0,0-.45.17c-1.33.67-7,4.58-9.22,3.5-1.06-.51-4.72-6.65-1.94-10.81s11.92-5.83,15.81-5.83,12.76-1.94,15.25-1.66,7.21,4.16,10,4.44,15.25-2.5,18.3-2,5.83-.55,8.32-.27C619.78,203.67,628,209.26,628.6,215.5Z" transform="translate(-260.79 -11.05)"/>
<path id="eye_creas_left" data-name="eye creas left" class="cls-6" d="M452,284.14s-11.65-1.39-17.48,0-21.35,12.07-21.35,12.07" transform="translate(-260.79 -11.05)"/><path id="Eye_crease_right_low" data-name="Eye crease right low" class="cls-6" d="M621.19,238.93s-5-1.2-19.42,2.45-17.19,14.47-17.19,14.47" transform="translate(-260.79 -11.05)"/><path id="eye_crease_right_high" data-name="eye crease right high" class="cls-6" d="M638.11,234.5s-23.7-6.95-28.85-5.77c-6,1.38-2.72.65-6.38,2.52a35.27,35.27,0,0,0-5,2.89c-.18.11-1,.53-3.94,2.38-3.49,2.21-2.87.5-11.33,12.67" transform="translate(-260.79 -11.05)"/>

<path id="nose_creas" data-name="nose creas" class="cls-7" d="M524.46,366c4.62-4.22,16.88-14.22,33.66-14,3.49,0,7.74-.58,22,3.49" transform="translate(-260.79 -11.05)"/><path id="left_nosetril" data-name="left nosetril" class="cls-8" d="M508.68,392.38c-2.32,13-7,20.22-10,25.38a17.19,17.19,0,0,0-2.5,4.58c-3.47,12.13,8.82,20.43,10,21.22,10.7,7.18,23.29,1.63,24.13,1.24" transform="translate(-260.79 -11.05)"/><path id="right_nosetril" data-name="right nosetril" class="cls-8" d="M599,368.41c7.31,10.88,13.84,15.77,18.2,19.4a18.47,18.47,0,0,1,3.78,3.26c7.77,9.72,2.56,21.45,2.06,22.56-4.56,10.19-16,9.55-16.77,9.49" transform="translate(-260.79 -11.05)"/>

<polygon id="shirt" class="cls-9" points="242.87 669.13 218.55 686.78 241.56 754.36 272.68 839.43 278.71 855.54 282.75 816.46 293.69 787.95 364.17 799.84 372.91 776.24 380.82 743.84 387.01 719 409.63 653.58 364.42 630.06 274.97 643.37 242.87 669.13"/><path id="collar" class="cls-1" d="M478.76,697.28l57-43.86,13.73,5.41,8.74.83a94.37,94.37,0,0,0,31.62,0c17.89-2.91,24.54-6.24,24.54-6.24s5.41-3.32,7.91-6.24,37,50.1,37,50.1l22.36-63,13.5-31.09L704.4,584,718,542.48l.46-1.39-14.84,12.76-5.27,7.77-6.38,8-5.83,10.54-3.6,5-5.76,6.19-9.22,9.9-7.77,4.44-3.37,1-6.7,3.26-6.85,3.34-5.75,2.81-5.74,3.06-14.19,8.72-22.25,12.2-4.83,3a2.87,2.87,0,0,1-1.07.39l-12,1.62a9.26,9.26,0,0,1-2,.06l-19.54-1.62a12.76,12.76,0,0,1-4.76-1.35l-21.66-11c-.13-.06-.26-.13-.4-.18L497.27,617.5,445,592.23l-13.47-7.38a4.1,4.1,0,0,0-1.93-.49h-5.07Z" transform="translate(-260.79 -11.05)"/><path id="tie" class="cls-1" d="M535.76,654.42l-32.1,25.76,28.15,16.47,10.82,14.56,16.64,26,4,7.49s.42-3.54-1.87,8.52-2.29,14.15-2.29,14.15v9l1.46,8.11-7.58,15.18s-4.28,6.87-7.4,20.18-3.33,9.16-5.2,23.09-1.67,20.81-1.67,20.81l13.47,47.52L573,974.66l1.45,3.77,12.49-45.37,9.46-29L613,847.68l12-36.79s.46-5.23-9.52-21.46l-4.79-7.07a26.46,26.46,0,0,0,2.5-19.56c-2.92-11-6.45-17-6.45-17v-5.2l15-39.32,6.2-7.89L640,684.8l6.92-3.22-24.6-33.4-17.47,11.44-12.07,1.46-5.82,1.25-13.94,1-9.15-1.46-13.32-.62-11.23-4.16Z" transform="translate(-260.79 -11.05)"/><path id="shirt_shadow" data-name="shirt shadow" class="cls-10" d="M538.83,858l18.29,49.93,2.17,4.4a16.21,16.21,0,0,0,29.45-.8h0L609.82,848l12.76-37.16,3.88-2.22L607.6,878,575.28,981.71s-3.79,6.11-6,3.33-34.37-114.83-34.37-114.83Z" transform="translate(-260.79 -11.05)"/>

<path id="nose_tip_highlight" data-name="nose tip highlight" class="cls-11" d="M574.87,408.54c-6,9-24.34,8.91-29.12,1.25-1.88-3-1.52-6.94-.42-9.57,3-7.25,13.16-8.27,17.89-8.74s8.53-.85,11.23,1.67C578.24,396.67,577.8,404.1,574.87,408.54Z" transform="translate(-260.79 -11.05)"/>

<path id="line_right_ear" data-name="line right ear" class="cls-4" d="M725.06,258.9a70.3,70.3,0,0,0,2.22-26.49c-.85-7.61-2.73-12.42-6-15.95-1.14-1.24-4.1-4.12-8-4.43a8.3,8.3,0,0,0-1,0,2.15,2.15,0,0,0-2.07,2.59c.25,1.22.55,2.66.55,2.86.17,5.91.89,4.83-5.9,19.55" transform="translate(-260.79 -11.05)"/><path id="line_right_era_2" data-name="line right era 2" class="cls-4" d="M727.35,267.29a29.46,29.46,0,0,0-5.82-14.35c-2.47-3.35-4.84-12.51-5-37" transform="translate(-260.79 -11.05)"/>

<path id="mouth_crease" data-name="mouth crease" class="cls-4" d="M518.84,518.24a49,49,0,0,0,17.2-.14,67.47,67.47,0,0,0,12.34-3.88c6.83-2.68,6.65-3.47,11.79-5.27a60.36,60.36,0,0,1,15.39-3.19,130,130,0,0,1,13.59-.28c1.29,0,1.65.67,2.92,0,.69-.37.67-1.2,1-2.08.44-1.33,1.22-2.13,2.77-3.75,2.85-3,9.26-5.26,13.59-6.79,6.55-2.32,9.83-3.47,10.26-3.61,6.75-2.08,8.73-2.15,14.57-3.88,6.3-1.87,9.47-2.77,12.34-4.44a31.33,31.33,0,0,0,10.12-9.57" transform="translate(-260.79 -11.05)"/><path id="upper_lip_contorn" data-name="upper lip contorn" class="cls-4" d="M650.59,476.46s-31.83,7.9-35.67,7.8a42.58,42.58,0,0,0-9,.83c-.63.21-6.35,4.89-6.35,4.89s-7.28,3.64-11.75,7.8c0,0-18.41,0-25.17,2.29,0,0,.41-.52-11.24,3.64,0,0-6.13,5.93-20,9.78l-13.83,3.85" transform="translate(-260.79 -11.05)"/><path id="lower_lip_contorn" data-name="lower lip contorn" class="cls-4" d="M640.19,498.61a69.16,69.16,0,0,1-5.2,5.83c-24.21,24.21-60.67,24.68-79.67,23.3" transform="translate(-260.79 -11.05)"/>

<path id="left_earlobe" data-name="left earlobe" class="cls-4" d="M331.9,415.2a12.33,12.33,0,0,1,7.9-2.08c6.56.61,9.75,6.61,10,7.07" transform="translate(-260.79 -11.05)"/><path id="left_ear_line_1" data-name="left ear line 1" class="cls-8" d="M319.83,358.2c-4.27-3.6-10.51-8.71-18.3-14.56-13.36-10-17.2-11.67-20.39-10.41-4.33,1.72-5.54,8-6.24,11.65-2.3,11.88,3.17,22,5.82,26.21" transform="translate(-260.79 -11.05)"/><path id="left_ear_line_2" data-name="left ear line 2" class="cls-4" d="M286,336.7A39,39,0,0,1,292.51,350a43.65,43.65,0,0,1,1.25,11.65c.13,6,1.5,14.62,7.21,25.66" transform="translate(-260.79 -11.05)"/>

<path id="right_face_contorn_line" data-name="right face contorn line" class="cls-12" d="M707.8,256.27s4.22,15.94,8.45,33.7c0,0,5.76,9.43,11.1,28.84S740,375.26,740,375.26" transform="translate(-260.79 -11.05)"/>

<path id="laugth_line_left" data-name="laugth line left" class="cls-8" d="M481.49,485.23l-5.22,33.7s6.52,15.67,14.84,24.55" transform="translate(-260.79 -11.05)"/><path id="laugth_line_right" data-name="laugth line right" class="cls-8" d="M650.59,413.07s17.48,6.56,26.35,13.57,8.88,13.66,13.31,26.42L688,471.36" transform="translate(-260.79 -11.05)"/>

<path id="nose_contorn" data-name="nose contorn" class="cls-13" d="M517.87,435.17a18.27,18.27,0,0,1,10-6.24c1.3-.28,3.57-.58,8.73.41,7.88,1.51,8.6,3.36,14.2,4.58,9.19,2,17.15-.86,19.73-1.82a38.69,38.69,0,0,0,8.79-4.7c4.49-3.09,15.25-10.49,17.92-23,1-4.66-.08-10.11-2.25-21-.09-.48-2.05-10.05-5.34-15.59-1.32-2.21-3-4.83-3-4.83-.78-1.18-1.53-2.28-2.8-4.08-2.5-3.56-4.2-5.87-4.66-6.5-3.53-4.93-4.59-11.06-5.16-13.8-3.82-18.19-17.26-35.26-21.5-61.44-.76-4.71-1-8.5-1.11-9.7a100.9,100.9,0,0,1,1.11-22.75" transform="translate(-260.79 -11.05)"/><path id="right_nostril_contorn" data-name="right nostril contorn" class="cls-8" d="M610.93,417.55c-.84-.88-6.56-6.75-13.59-5.54a11.63,11.63,0,0,0-3.68,1.29" transform="translate(-260.79 -11.05)"/><path class="cls-7" d="M327.46,370s16.08,30.46,22.33,50.18" transform="translate(-260.79 -11.05)"/><path class="cls-9" d="M395.14,321.58a52.25,52.25,0,0,0,17.89,5c16.92,1.49,33.16-5.91,41.19-9.57a96.67,96.67,0,0,1,10.4-4.16,94.46,94.46,0,0,1,12.9-3.33" transform="translate(-260.79 -11.05)"/><path class="cls-14" d="M442.56,590.89c-2.16-4-10.18-16.3-12.33-20.27" transform="translate(-260.79 -11.05)"/></svg>