<svg id="Layer_1" data-name="Layer 1" xmlns="http://www.w3.org/2000/svg" viewBox="0 0 577.30948 582.78026"><defs><style>.cls-1,.cls-3{fill:none;}.cls-1,.cls-2{stroke:#000;}.cls-1,.cls-2,.cls-3,.cls-4,.cls-5{stroke-miterlimit:10;stroke-width:3px;}.cls-3,.cls-4,.cls-5{stroke:#fff;}.cls-4{fill:#fff;}</style></defs><path class="cls-1" d="M428.66913,126.01676c0,54.613-65.72841,98.88561-146.80851,98.88561s-169.26089-21.24879-169.26089-75.8618c0-3.99477,1.94908-6.80329,2.9901-10.87036a110.81054,110.81054,0,0,1,25.78723-47.234c32.487-35.066,87.59965-63.805,140.48356-63.805C362.94072,27.13115,428.66913,71.40374,428.66913,126.01676Z" transform="translate(-31.87706 -24.40059)"/><ellipse class="cls-2" cx="288.65474" cy="307.42168" rx="287.15474" ry="273.85859"/><path d="M429.8877,123.7862c0,54.613-65.72841,98.88561-146.80851,98.88561S106.9921,200.99473,113.8183,146.81C120.95153,90.1882,201.99909,24.90059,283.07919,24.90059S429.8877,69.17319,429.8877,123.7862Z" transform="translate(-31.87706 -24.40059)"/><path class="cls-3" d="M275.62867,487.3003c-27.495-12.37285-49.409-30.90867-63.619-57.95183-1.79943-3.63932-3.89838-7.16424-5.33309-10.94285-2.624-6.91087-6.6839-11.70213-14.64539-11.79156-10.48492-2.23689-17.033-8.96477-21.05952-18.56946-2.61221-6.37188-4.20276-12.7301-2.69676-19.83945.45062-2.12725-2.13632-4.90175-3.33162-7.37973-11.8362-6.8902-17.01127-18.73725-22.8221-30.253a29.6715,29.6715,0,0,0-8.26392-10.14694c-15.16-11.35721-23.51914-25.59983-21.58719-45.17114.77217-7.82232,1.5176-9.15649,9.303-9.92331,6.46847-.63713,6.90021-1.59213,4.34205-7.6533-2.32143-5.50028-4.29422-11.14854-6.42068-16.73162-1.94635-21.47777-4.61252-42.92319-5.57219-64.44518-.58612-13.14468,1.45172-26.407,2.31106-39.61655,4.83618-11.1043,9.34114-22.37163,14.65853-33.23909,2.396-4.89674,6.41215-8.996,9.69321-13.45713L160.03573,70.219c12.42706-8.2913,24.3922-17.43038,37.44041-24.58168,8.99267-4.9286,19.485-7.10473,29.30719-10.511,23.15084-6.93341,46.84356-9.04848,70.83972-7.335,11.43649.81666,22.79917,2.67331,34.19527,4.05888,20.8541,6.21044,41.28637,13.33644,58.6116,27.19565,2.49345,1.99458,4.97093,4.00921,7.45578,6.01457q9.29625,9.238,18.59251,18.47606c10.86225,13.38617,17.42587,28.9231,22.77168,45.13437,2.14523,6.50557,5.02741,12.76668,7.57412,19.13907,1.38386,6.72645,2.74793,13.45708,4.16584,20.1763.34533,1.63656.8675,3.2356,1.30836,4.85189l2.38234-.91739c9.65948-10.32328,17.84883-8.567,22.55608,4.856,1.063,3.03122,2.03616,6.09414,3.0507,9.14246q.61865,15.93618,1.23745,31.8723l.14854-.30047c-1.30762,6.11858-3.48685,12.20478-3.71372,18.36334a169.08946,169.08946,0,0,0,1.436,26.2177c.76329,6.37147,2.75767,12.59455,4.20345,18.88376q1.55857,3.76947,3.1171,7.53894.68472,8.578,1.36941,17.156l-2.23145.22243q-2.96065-13.11355-5.92134-26.2271a4.85616,4.85616,0,0,0-.42111,3.81326c7.56042,25.46749,7.27693,51.65205,5.93277,77.69757-1.05417,20.42712-4.22317,40.7444-6.45263,61.11048q-5.1031,8.96323-10.20622,17.92662c-2.3498,2.09146-5.00586,3.928-6.98819,6.325-4.71051,5.69593-9.10208,11.65728-13.62251,17.51136-6.51521,12.06269-14.672,22.60777-26.95982,29.33368q-12.91138,6.00354-25.82274,12.00712a15.46153,15.46153,0,0,0-3.18351.24274c-19.65055,5.64619-39.18726,4.83789-58.65006-.93928q-9.25265-4.1327-18.50546-8.26535Q295.34087,491.85486,275.62867,487.3003Zm91.76541-80.04163c-5.69936.45869-11.43946.64531-17.08025,1.495-2.67662.40317-5.16364,2.0722-7.73656,3.16771a44.02859,44.02859,0,0,0-6.13953,1.66245c-6.6049,2.819-13.1376,5.809-19.67464,8.78508-.46819.21316-.749.84021-1.84294,2.13241,9.7042,2.26631,17.17211-2.58327,25.077-4.8838,8.50974-1.51415,17.0596-2.8418,25.50224-4.668,2.23061-.4824,4.13066-2.50219,6.18248-3.81605q5.39171-2.82632,10.78341-5.65258c6.43562-1.98769,12.9286-3.81038,19.28269-6.03258,3.18177-1.11276,6.1103-2.95388,9.15336-4.46563q1.22581.01743,2.45161.03493c2.17245-1.78241,4.34485-3.56478,7.45331-6.11509-4.33244,1.29859-7.26735,2.09776-10.14784,3.0606-4.27486,1.429-8.51118,2.97388-12.76391,4.46944C386.67449,397.05655,376.09433,399.49384,367.39408,407.25867ZM338.5,208.44151l-2.42522-.0009c0,6.52392.36531,13.07829-.17114,19.55755-.2301,2.77954-1.74179,7.11994-3.691,7.7968-7.958,2.76322-16.22468,5.569-24.53528,6.17114-15.50871,1.12376-31.33411-.77883-46.64664,1.3437-18.32477,2.54009-36.40445,7.41555-54.29547,12.35395-12.2286,3.37539-25.69562,3.20746-36.36788,11.624-.52206.4117-1.64449.10621-2.483.05815-8.56966-.49152-16.1645-2.30289-21.92487-9.97776-1.89645-2.52674-7.48576-2.68847-11.4362-2.8757-.76731-.03637-1.92081,4.78389-2.5845,7.44224-.28756,1.15174.2152,2.502.14361,1.87456,3.17906,2.96484,5.27926,4.64226,7.03383,6.627,2.51665,2.84684,4.338,6.48418,7.24657,8.77409a147.591,147.591,0,0,0,18.572,12.63677c3.15889,1.78389,7.31056,1.79942,11.01278,2.61551,2.91317.71122,5.06259,4.008,7.99441,5.01627,3.645,1.25354,4.95924,3.24561,5.84663,6.54831.83053,3.09109,1.69488,6.41264,3.50438,8.94185,2.5437,3.55548,5.58036,8.63147,9.09609,9.27687,12.94856,2.377,26.17933,3.10023,39.19821-.23256-6.80718.11286-13.60814.63019-20.413.68749-15.54221.13084-19.71335-2.49612-25.40837-17.1848a204.338,204.338,0,0,1-7.4882-24.50044c-1.29208-5.18823-2.36821-11.69172,3.976-14.1298,12.23974-4.70379,24.89027-8.33238,37.59078-12.47868,1.66677,11.69294,6.5635,15.68831,16.22522,13.82279,2.68949-.5193,6.468-2.28369,7.246-4.40118,1.614-4.3927,1.55207-9.4048,2.341-15.38979,12.05825-.96382,25.471-2.18749,38.90972-2.9516,2.08809-.11875,5.98509,1.62212,6.16739,2.91216,1.03956,7.35655,4.223,15.16326-2.33217,21.80995-2.47674,2.51133-2.05208,4.75458.856,6.93744,2.75748,2.06988,5.15789,4.6183,8.81589,7.96239a94.14986,94.14986,0,0,0,1.51457-10.08791c.27563-5.7815.07468-11.58427.16634-17.37662.10044-6.34786,3.845-9.88395,9.56145-11.28321,3.28291-.80357,6.77971-.73487,10.182-1.03961,4.55106-.40762,7.99247-.17408,8.86887,6.00524.52781,3.72145,3.8212,7.05169,5.88514,10.54982,2.66351,4.51436,5.85908,8.80179,7.869,13.59077,2.10985,5.02694,3.08894,10.53129,4.567,15.84431L336.75,292.33783a14.7937,14.7937,0,0,0,7.54836,1.21631c11.40726-.53563,19.32563,4.33953,23.08552,15.25336,1.59873,4.64063,2.51757,9.51281,3.862,14.24642,2.93539,10.33536-.322,18.55051-8.40053,25.16245-8.92871,7.30783-18.42661,11.4655-30.21777,6.885a40.58641,40.58641,0,0,0-13.11348-2.43163c-4.68531-.161-7.18594,2.19964-8.82192,7.363,6.31436-5.885,12.85369-5.99648,19.45985-3.061,15.92956,7.07824,29.28742-1.01584,37.74657-9.78867,7.02509-7.28569,6.84126-7.4666,16.042-4.03335l-9.891-4.21551c1.86337-13.09352-.81878-25.29-7.18949-36.9602-5.56655-10.197-10.52-20.73074-15.58372-30.79656,3.2846-2.189,5.57832-2.94724,6.49-4.5143,1.22258-2.10142-4.572-12.077-7.1163-12.62051-6.84992-1.46327-5.74173-7.40948-7.14049-12.05627-1.38059-4.58641.45939-7.49772,4.30077-9.49285,6.812-3.538,13.68342-6.96115,20.72182-10.52962,4.84823,6.84605,10.95674,8.656,18.28477,6.13182,7.54047-2.59733,7.1155-9.24946,7.30436-15.58023,14.50415-4.642,28.62248-9.72763,44.0107-8.88786,7.27147.39681,9.26216,1.87048,9.71735,8.99917.31454,4.92511.08183,9.88568.08454,14.83042q.00646,11.991.00117,23.982,1.27229.27385,2.54459.54768c.8569-2.25636,2.13082-4.44759,2.49311-6.78122,1.11989-7.21368,1.75-14.50444,2.90072-21.71223.2838-1.7778,1.822-3.35418,3.69141-6.59887,3.75255,13.06969,6.868,23.92063,9.98356,34.77159-3.91141-18.15293-8.09594-36.15479-12.67857-54.05409-.34941-1.36479-3.651-3.0367-5.35468-2.81568-13.09167,1.69841-26.195,3.47357-39.15831,5.94463-9.62021,1.83382-19.08315,4.57853-28.52268,7.24968-4.539,1.28445-8.84591,3.38078-13.29092,5.01943-1.84364.67965-3.77359,1.12392-5.66429,1.67521l.45047.415L338.5,230.1693Zm59.60123-22.62516a33.29426,33.29426,0,0,0-1.821-4.84912c-3.87112-6.76523-10.296-5.77772-16.45-5.10939a57.759,57.759,0,0,1-17.95128-.95334c-7.39212-1.45844-15.76347,1.40613-23.52545,3.20222-1.2083.2796-1.43169,4.84072-2.11053,7.422,2.115.27825,4.281.99185,6.33524.75026,5.39766-.63472,10.75879-2.49087,16.11269-2.41C371.59133,184.064,384.47929,185.08781,398.1012,185.81635ZM259.94583,203.71751c-3.47882-4.62031-7.37794-5.23727-11.79849.04366A48.31815,48.31815,0,0,1,227.367,218.18665c-6.90353,2.6019-15.45008,15.83279-15.03609,24.19385,7.4817-11.67292,18.35718-15.4213,29.2531-19.286,2.04246-.72445,3.67283-2.88835,5.249-4.61263C251.22783,213.67418,255.49428,208.74852,259.94583,203.71751ZM385.22021,426.53239l-40.56805,6.562C358.00923,433.685,373.45025,432.16617,385.22021,426.53239Z" transform="translate(-31.87706 -24.40059)"/><path class="cls-4" d="M421.21511,493.36411c12.28781-6.72594,20.44461-17.271,26.95982-29.33371,2.20428-1.83459,4.5383-3.5356,6.58341-5.534,3.33705-3.26084,6.42831-6.776,9.79835-9.99983.35561-.34016,1.88318.55195,2.867.87234-8.7352,21.91568-17.64308,43.76428-26.14422,65.77092-5.56965,14.41808-10.52977,29.07247-15.81809,43.60089-.77017,2.1158-1.84851,4.11881-3.33827,7.3908-2.96931-4.10282-5.17-7.14357-7.3707-10.18436-6.24014-9.11524-12.33035-18.33959-18.80459-27.28439-2.16455-2.99058-4.38554-1.36782-5.82166,1.34737l.24255-.1924c-20.50685,9.072-41.33668,10.9649-62.7157,3.11694-1.128-.41407-2.90415.94815-4.37857,1.48344q-18.48087,13.90635-36.96847,27.80369c-5.73554,4.29445-6.8903,3.962-9.731-2.41858-1.74593-3.92152-3.53551-7.82346-5.30575-11.73415q-6.1346-12.3351-12.2687-24.67017-8.6367-18.60109-17.265-37.20609a19.63746,19.63746,0,0,1-2.03458-7.20169c11.07247,2.57516,20.38654,8.74782,30.32214,13.43464q14.16921,6.50782,28.33838,13.01557,8.56,3.83,17.12,7.66c3.097,1.74291,6.31871,3.29742,9.269,5.262,11.24074,7.4855,23.79816,8.74664,36.69109,7.47712,3.30168-.32516,6.387-2.861,9.57168-4.38116q12.83559-7.25931,25.67122-14.51854c8.03684-3.72887,16.08677-7.43033,24.074-11.26312C421.18169,495.47452,421.07509,494.16077,421.21511,493.36411Z" transform="translate(-31.87706 -24.40059)"/><path class="cls-5" d="M478.99185,422.26744c2.22946-20.36608,5.39846-40.68336,6.45263-61.11048,1.34416-26.04552,1.62765-52.23008-5.93277-77.69757a4.85616,4.85616,0,0,1,.42111-3.81326q2.96064,13.11355,5.92134,26.2271l2.23145-.22243q-.68472-8.578-1.36941-17.156c.79624,4.897,2.36067,9.81391,2.23491,14.68694-.297,11.505-1.42,22.98779-2.16918,34.48215-.88768,13.61976-1.67159,27.24657-2.61727,40.86217-.75662,10.89276-1.54162,21.78792-2.6219,32.65119C481.17038,414.92177,479.86894,418.57338,478.99185,422.26744Z" transform="translate(-31.87706 -24.40059)"/><path class="cls-5" d="M331.81832,31.85027c-11.3961-1.38557-22.75878-3.24222-34.19527-4.05888-23.99616-1.71352-47.68888.40155-70.83972,7.335,3.2-1.28866,6.29476-3.05262,9.6163-3.79182,30.54565-6.7979,61.17854-7.40132,91.849-.76885A27.78187,27.78187,0,0,1,331.81832,31.85027Z" transform="translate(-31.87706 -24.40059)"/><path class="cls-5" d="M116.23332,136.88442c-.85933,13.20951-2.89717,26.47187-2.31105,39.61655.95967,21.522,3.62584,42.96741,5.57219,64.44518-1.3089-4.97936-3.41611-9.89862-3.79446-14.94817-2.13418-28.48337-5.9739-56.984-.73054-85.53365A23.45945,23.45945,0,0,1,116.23332,136.88442Z" transform="translate(-31.87706 -24.40059)"/><path class="cls-5" d="M323.27446,534.41812c1.47442-.53533,3.25061-1.89755,4.37857-1.48348,21.379,7.848,42.20885,5.955,62.7157-3.11694-4.71142,2.4647-9.17641,6.16651-14.17912,7.169-16.99831,3.40616-34.09529,4.55242-50.55573-3.05319C325.04633,533.662,324.06973,534.23744,323.27446,534.41812Z" transform="translate(-31.87706 -24.40059)"/><path class="cls-5" d="M467.42371,449.36887c-.98384-.32039-2.51141-1.2125-2.867-.87234-3.37,3.22379-6.4613,6.739-9.79835,9.99983-2.04511,1.99844-4.37913,3.69945-6.58341,5.534,4.52043-5.85408,8.912-11.81543,13.62251-17.51136,1.98233-2.397,4.63839-4.23352,6.98819-6.325Q468.10462,444.78129,467.42371,449.36887Z" transform="translate(-31.87706 -24.40059)"/><path class="cls-5" d="M371.01322,521.45926c-3.18471,1.52018-6.27,4.056-9.57168,4.38116-12.89293,1.26952-25.45035.00838-36.69109-7.47712-2.95024-1.96462-6.17194-3.51913-9.269-5.262,6.35255,2.86491,12.56649,6.10788,19.08768,8.5128C346.64976,526.06929,358.89252,527.32141,371.01322,521.45926Z" transform="translate(-31.87706 -24.40059)"/><path class="cls-5" d="M483.5991,280.95584c-1.44578-6.28921-3.44016-12.51229-4.20345-18.88376a169.08946,169.08946,0,0,1-1.436-26.2177c.22687-6.15856,2.4061-12.24476,3.71372-18.36334C476.78215,238.81484,480.30057,259.882,483.5991,280.95584Z" transform="translate(-31.87706 -24.40059)"/><path class="cls-5" d="M333.5588,504.67466c19.4628,5.77717,38.99951,6.58547,58.65006.93928a15.46161,15.46161,0,0,1,3.18353-.24274q.003.39016.00556.78028c-18.27468,5.69313-36.74881,5.5451-55.29035,1.67277C337.80647,507.34366,335.73611,505.75165,333.5588,504.67466Z" transform="translate(-31.87706 -24.40059)"/><path class="cls-5" d="M395.398,506.15148q-.00257-.39017-.00558-.78028,12.91135-6.0036,25.82274-12.00712c-.14.79669-.03342,2.11044-.45665,2.31352-7.98725,3.83279-16.03718,7.53425-24.074,11.26312Z" transform="translate(-31.87706 -24.40059)"/><path class="cls-5" d="M390.12618,530.0101c1.43612-2.71519,3.65711-4.33795,5.82166-1.34737,6.47424,8.9448,12.56445,18.16915,18.80459,27.28439-6.21733-7.97645-12.542-15.87241-18.58492-23.97968C394.412,529.61229,392.802,528.63071,390.12618,530.0101Z" transform="translate(-31.87706 -24.40059)"/><path class="cls-5" d="M275.62867,487.3003q19.71226,4.55451,39.42467,9.109C301.35907,495.77975,288.01282,493.63438,275.62867,487.3003Z" transform="translate(-31.87706 -24.40059)"/><path class="cls-5" d="M192.03124,406.61406c7.96149.08943,12.0214,4.88069,14.64539,11.79156,1.43471,3.77861,3.53366,7.30353,5.33309,10.94285-2.70353-4.40226-5.82014-8.61066-7.991-13.263-2.04969-4.39242-4.2868-7.6774-9.6457-7.625C193.59846,408.4681,192.81211,407.25973,192.03124,406.61406Z" transform="translate(-31.87706 -24.40059)"/><path class="cls-5" d="M298.36147,505.4413q-14.1692-6.50777-28.33838-13.01557Q284.19227,498.9335,298.36147,505.4413Z" transform="translate(-31.87706 -24.40059)"/><path class="cls-5" d="M160.03572,70.219,140.58507,90.1882Q150.31038,80.20359,160.03572,70.219Z" transform="translate(-31.87706 -24.40059)"/><path class="cls-5" d="M416.47821,83.53655q-9.29622-9.238-18.59251-18.476Q407.18195,74.29852,416.47821,83.53655Z" transform="translate(-31.87706 -24.40059)"/><path class="cls-5" d="M481.52478,217.79151q-.61876-15.93614-1.23745-31.8723C483.32779,196.44068,486.98512,206.93805,481.52478,217.79151Z" transform="translate(-31.87706 -24.40059)"/><path class="cls-5" d="M259.00052,523.39887q6.13422,12.3351,12.2687,24.67017Q265.13512,535.73394,259.00052,523.39887Z" transform="translate(-31.87706 -24.40059)"/><path class="cls-5" d="M164.94334,360.82542c1.1953,2.478,3.78224,5.25248,3.33162,7.37973-1.506,7.10935.08455,13.46757,2.69676,19.83945-1.50536-5.45748-3.177-10.87618-4.45651-16.38647C165.69289,368.11694,165.44738,364.441,164.94334,360.82542Z" transform="translate(-31.87706 -24.40059)"/><path class="cls-5" d="M454.68055,171.92079l-2.38234.91739c-.44086-1.61629-.963-3.21533-1.30836-4.85189-1.41791-6.71922-2.782-13.44985-4.16584-20.17628,1.73728,5.683,3.43191,11.37958,5.232,17.04248C452.81657,167.24512,453.799,169.56683,454.68055,171.92079Z" transform="translate(-31.87706 -24.40059)"/><path class="cls-5" d="M338.5,208.44151V230.1693l26.82946-15.0691-.45047-.415c1.8907-.55129,3.82065-.99556,5.66429-1.67521,4.445-1.63865,8.75187-3.735,13.29092-5.01943,9.43953-2.67115,18.90247-5.41586,28.52268-7.24968,12.96332-2.47106,26.06664-4.24622,39.15831-5.94463,1.70367-.221,5.00527,1.45089,5.35468,2.81568,4.58263,17.8993,8.76716,35.90116,12.67857,54.05409-3.11553-10.851-6.231-21.7019-9.98356-34.77159-1.86936,3.24469-3.40761,4.82107-3.69141,6.59887-1.15068,7.20779-1.78083,14.49855-2.90072,21.71223-.36229,2.33363-1.63621,4.52486-2.49311,6.78122q-1.27227-.27382-2.54459-.54768,0-11.991-.00117-23.982c-.00271-4.94474.23-9.90531-.08454-14.83042-.45519-7.12869-2.44588-8.60236-9.71735-8.99917-15.38822-.83977-29.50655,4.24587-44.0107,8.88786-.18886,6.33077.23611,12.9829-7.30436,15.58023-7.328,2.52419-13.43654.71423-18.28477-6.13182-7.0384,3.56847-13.90978,6.99162-20.72182,10.52962-3.84138,1.99513-5.68136,4.90644-4.30077,9.49285,1.39876,4.64679.29057,10.593,7.14049,12.05627,2.54433.54352,8.33888,10.51909,7.1163,12.62051-.9117,1.56706-3.20542,2.32534-6.49,4.5143,5.06375,10.06582,10.01717,20.59954,15.58372,30.79656,6.37071,11.67021,9.05286,23.86668,7.18949,36.9602l9.891,4.21551c-9.20069-3.43325-9.01686-3.25234-16.042,4.03335-8.45915,8.77283-21.817,16.86691-37.74657,9.78867-6.60616-2.93545-13.14549-2.824-19.45985,3.061,1.636-5.16332,4.13661-7.52394,8.82192-7.363a40.58641,40.58641,0,0,1,13.11348,2.43163c11.79116,4.58053,21.28906.42286,30.21777-6.885,8.07857-6.61194,11.33592-14.82709,8.40053-25.16245-1.34444-4.73361-2.26328-9.60579-3.862-14.24642-3.75989-10.91383-11.67826-15.789-23.08552-15.25336a14.7937,14.7937,0,0,1-7.54836-1.21631l19.93791.97422c-1.47808-5.313-2.45717-10.81737-4.567-15.84431-2.01-4.789-5.20552-9.07641-7.869-13.59077-2.06394-3.49813-5.35733-6.82837-5.88514-10.54982-.8764-6.17932-4.31781-6.41286-8.86887-6.00524-3.40226.30474-6.89906.236-10.182,1.03961-5.71648,1.39926-9.461,4.93535-9.56145,11.28321-.09166,5.79235.10929,11.59512-.16634,17.37662a94.14986,94.14986,0,0,1-1.51457,10.08791c-3.658-3.34409-6.05841-5.89251-8.81589-7.96239-2.90808-2.18286-3.33274-4.42611-.856-6.93744,6.55516-6.64669,3.37173-14.4534,2.33217-21.80995-.1823-1.29-4.0793-3.03091-6.16739-2.91216-13.43872.76411-26.85147,1.98778-38.90972,2.9516-.78888,5.985-.727,10.99709-2.341,15.38979-.778,2.11749-4.5565,3.88188-7.246,4.40118-9.66172,1.86552-14.55845-2.12985-16.22522-13.82279-12.70051,4.1463-25.351,7.77489-37.59078,12.47868-6.34417,2.43808-5.268,8.94157-3.976,14.1298a204.338,204.338,0,0,0,7.4882,24.50044c5.695,14.68868,9.86616,17.31564,25.40837,17.1848,6.80482-.0573,13.60578-.57463,20.413-.68749-13.01888,3.33279-26.24965,2.60952-39.19821.23256-3.51573-.6454-6.55239-5.72139-9.09609-9.27687-1.8095-2.52921-2.67385-5.85076-3.50438-8.94185-.88739-3.3027-2.20162-5.29477-5.84663-6.54831-2.93182-1.0083-5.08124-4.305-7.99441-5.01627-3.70222-.81609-7.85389-.83162-11.01278-2.61551a147.591,147.591,0,0,1-18.572-12.63677c-2.90862-2.28991-4.72992-5.92725-7.24657-8.77409-1.75457-1.98476-3.85477-3.66218-7.03383-6.627.07159.62742-.43117-.72282-.14361-1.87456.66369-2.65835,1.81719-7.47861,2.5845-7.44224,3.95044.18723,9.53975.349,11.4362,2.8757,5.76037,7.67487,13.35521,9.48624,21.92487,9.97776.83849.04806,1.96092.35355,2.483-.05815,10.67226-8.4165,24.13928-8.24857,36.36788-11.624,17.891-4.9384,35.9707-9.81386,54.29547-12.35395,15.31253-2.12253,31.13793-.21994,46.64664-1.3437,8.3106-.60219,16.57732-3.40792,24.53528-6.17114,1.94921-.67686,3.4609-5.01726,3.691-7.7968.53645-6.47926.17114-13.03363.17114-19.55755Z" transform="translate(-31.87706 -24.40059)"/><path class="cls-5" d="M398.1012,185.81635c-13.62191-.72854-26.50987-1.75239-39.41032-1.94736-5.3539-.08091-10.715,1.77524-16.11269,2.41-2.05427.24159-4.2202-.472-6.33524-.75026.67884-2.58125.90223-7.14237,2.11053-7.422,7.762-1.79609,16.13333-4.66066,23.52545-3.20222a57.759,57.759,0,0,0,17.95128.95334c6.154-.66833,12.57888-1.65584,16.45,5.10939A33.29426,33.29426,0,0,1,398.1012,185.81635Z" transform="translate(-31.87706 -24.40059)"/><path class="cls-5" d="M259.94583,203.71751c-4.45155,5.031-8.718,9.95667-13.11279,14.76435-1.5762,1.72428-3.20657,3.88818-5.249,4.61263-10.89592,3.86471-21.7714,7.61309-29.2531,19.286-.414-8.36106,8.13256-21.592,15.03609-24.19385a48.31815,48.31815,0,0,0,20.78034-14.42548C252.56789,198.48024,256.467,199.0972,259.94583,203.71751Z" transform="translate(-31.87706 -24.40059)"/><path class="cls-4" d="M413.353,395.01758q-1.2258-.01743-2.45165-.03481c-5.22379,1.58756-10.52552,2.96006-15.64746,4.82839-4.37013,1.59406-8.53364,3.75794-12.78857,5.66978q-5.39168,2.82626-10.78341,5.65262c-3.27415.88242-6.5016,2.19881-9.83192,2.55941-7.62829.8261-15.59994.08112-21.85278,5.9246-7.90492,2.30053-15.37283,7.15011-25.077,4.8838,1.09392-1.2922,1.37475-1.91925,1.84294-2.13241,6.537-2.97609,13.06974-5.96611,19.67464-8.78508a44.02764,44.02764,0,0,1,6.13957-1.66245q6.442-1.20466,12.8837-2.4102,5.96751-1.121,11.93307-2.25256c8.70025-7.76483,19.28041-10.20212,30.50052-10.826a89.3278,89.3278,0,0,1,9.36481-2.08547C409.23483,394.10775,411.31812,394.7635,413.353,395.01758Z" transform="translate(-31.87706 -24.40059)"/><path class="cls-5" d="M385.22021,426.53239c-11.77,5.63378-27.211,7.15258-40.56805,6.562Z" transform="translate(-31.87706 -24.40059)"/><path class="cls-5" d="M339.99719,419.61757c6.25284-5.84348,14.22449-5.0985,21.85278-5.9246,3.33032-.3606,6.55777-1.677,9.83194-2.55937-2.05182,1.31378-3.95187,3.33357-6.18248,3.816C357.05679,416.77577,348.50693,418.10342,339.99719,419.61757Z" transform="translate(-31.87706 -24.40059)"/><path class="cls-5" d="M382.46532,405.48094c4.25491-1.91184,8.41842-4.07572,12.78855-5.66978,5.12194-1.86833,10.42367-3.24083,15.64746-4.82839-3.043,1.51171-5.97155,3.35283-9.15332,4.46559C395.39392,401.67056,388.90094,403.49325,382.46532,405.48094Z" transform="translate(-31.87706 -24.40059)"/><path class="cls-5" d="M413.353,395.01766c-2.03486-.25416-4.11815-.90991-6.09357-.67048a89.3278,89.3278,0,0,0-9.36481,2.08547c4.25267-1.4956,8.489-3.04047,12.76385-4.46948,2.88049-.96284,5.8154-1.762,10.14784-3.0606C417.69783,391.45288,415.52543,393.23525,413.353,395.01766Z" transform="translate(-31.87706 -24.40059)"/><path class="cls-5" d="M367.39408,407.25867q-5.96644,1.12668-11.93307,2.25256-6.44091,1.21-12.8837,2.4102c2.57288-1.09551,5.0599-2.76454,7.73652-3.16771C355.95462,407.904,361.69472,407.71736,367.39408,407.25867Z" transform="translate(-31.87706 -24.40059)"/></svg>